HIERARCHY
ROOT joint_0
{
	OFFSET 0.000000 0.000000 0.000000
	CHANNELS 6 Xposition Yposition Zposition Zrotation Yrotation Xrotation 
	JOINT joint_1
	{
		OFFSET 10.084412 4.114712 95.061035
		CHANNELS 3 Zrotation Yrotation Xrotation
		JOINT joint_2
		{
			OFFSET -1.615463 4.243484 87.329956
			CHANNELS 3 Zrotation Yrotation Xrotation
			JOINT joint_3
			{
				OFFSET -3.579636 4.638191 87.154053
				CHANNELS 3 Zrotation Yrotation Xrotation
				JOINT joint_4
				{
					OFFSET 5.443451 7.217075 123.562988
					CHANNELS 3 Zrotation Yrotation Xrotation
					JOINT joint_5
					{
						OFFSET 21.688065 15.141808 90.458008
						CHANNELS 3 Zrotation Yrotation Xrotation
						End Site
						{
							OFFSET 0.000000 0.000000 0.000000
						}
					}
				}
				JOINT joint_6
				{
					OFFSET 3.611374 -22.863556 70.791992
					CHANNELS 3 Zrotation Yrotation Xrotation
					JOINT joint_7
					{
						OFFSET 3.493607 -153.029137 -12.665039
						CHANNELS 3 Zrotation Yrotation Xrotation
						JOINT joint_8
						{
							OFFSET -14.929443 -32.628616 -254.032959
							CHANNELS 3 Zrotation Yrotation Xrotation
							JOINT joint_9
							{
								OFFSET 11.589401 -3.548126 -242.255005
								CHANNELS 3 Zrotation Yrotation Xrotation
								End Site
								{
									OFFSET 0.000000 0.000000 0.000000
								}
							}
						}
					}
				}
				JOINT joint_10
				{
					OFFSET 2.651962 30.943008 67.690918
					CHANNELS 3 Zrotation Yrotation Xrotation
					JOINT joint_11
					{
						OFFSET -6.172562 150.392159 -30.576904
						CHANNELS 3 Zrotation Yrotation Xrotation
						JOINT joint_12
						{
							OFFSET 15.363358 20.741959 -255.254028
							CHANNELS 3 Zrotation Yrotation Xrotation
							JOINT joint_13
							{
								OFFSET 23.282578 -11.086121 -241.182983
								CHANNELS 3 Zrotation Yrotation Xrotation
								End Site
								{
									OFFSET 0.000000 0.000000 0.000000
								}
							}
						}
					}
				}
			}
		}
	}
	JOINT joint_14
	{
		OFFSET -7.080551 -92.910816 -106.291992
		CHANNELS 3 Zrotation Yrotation Xrotation
		JOINT joint_15
		{
			OFFSET -38.248322 -6.001282 -411.906006
			CHANNELS 3 Zrotation Yrotation Xrotation
			JOINT joint_16
			{
				OFFSET -11.189407 -11.244659 -448.150986
				CHANNELS 3 Zrotation Yrotation Xrotation
				JOINT joint_17
				{
					OFFSET 169.870491 -24.631378 -80.352999
					CHANNELS 3 Zrotation Yrotation Xrotation
					End Site
					{
						OFFSET 0.000000 0.000000 0.000000
					}
				}
			}
		}
	}
	JOINT joint_18
	{
		OFFSET -2.796600 85.817772 -112.273987
		CHANNELS 3 Zrotation Yrotation Xrotation
		JOINT joint_19
		{
			OFFSET -44.395859 -8.174402 -411.255005
			CHANNELS 3 Zrotation Yrotation Xrotation
			JOINT joint_20
			{
				OFFSET -25.617508 -5.555587 -447.666992
				CHANNELS 3 Zrotation Yrotation Xrotation
				JOINT joint_21
				{
					OFFSET 163.870811 53.215703 -78.867000
					CHANNELS 3 Zrotation Yrotation Xrotation
					End Site
					{
						OFFSET 0.000000 0.000000 0.000000
					}
				}
			}
		}
	}
}
MOTION
Frames: 16
Frame Time: 0.016667
-11.091778 -96.122597 1073.766968 -0.506631 10.341802 4.473025 -0.992776 -1.000484 12.633724 -0.720267 0.234227 -2.472126 -0.126856 -0.532201 1.865357 -2.552374 -1.615881 10.759760 0.000000 0.000000 0.000000 -5.342830 -0.247138 -0.937057 0.820617 -1.213417 -20.556235 1.180468 -17.426045 0.217676 0.000000 0.000000 0.000000 -3.636034 9.246480 2.407653 5.643655 10.279611 4.367371 1.800062 -43.963232 -14.072566 0.000000 0.000000 0.000000 3.379162 -35.494949 -18.487022 6.705606 54.883773 17.747043 15.024383 -4.644263 5.374319 0.000000 0.000000 0.000000 -4.547571 -10.707895 -0.796986 -2.329232 9.026420 -3.165509 -2.095894 -0.359022 -0.843767 0.000000 0.000000 0.000000 
-5.479809 -100.692604 1076.298950 -0.037744 10.556365 5.174475 -0.596739 -0.120426 12.122086 -0.525368 -0.001809 -2.352414 -0.016370 -0.278062 1.762282 -2.618711 -1.552130 10.840822 0.000000 0.000000 0.000000 -5.732796 0.289134 -1.128048 0.020411 -0.628326 -20.142473 1.674373 -25.911474 -1.134938 0.000000 0.000000 0.000000 -3.479308 10.106275 3.550020 6.207625 10.636161 5.363526 2.346883 -51.702556 -14.883488 0.000000 0.000000 0.000000 2.262423 -37.867558 -19.494909 5.946780 55.016880 15.927875 12.107230 -5.217533 4.175242 0.000000 0.000000 0.000000 -5.095031 -11.941509 -0.604160 -2.571026 10.987223 -4.141978 -2.379021 0.367085 -1.199201 0.000000 0.000000 0.000000 
1.494298 -105.377045 1078.286011 0.166726 10.574083 5.829991 -0.240667 0.474344 11.628464 -0.306291 -0.135889 -2.222564 0.120242 -0.071640 1.667862 -2.701485 -1.357077 10.852919 0.000000 0.000000 0.000000 -6.045414 0.941947 -1.412240 -0.928288 0.070606 -19.525241 2.121099 -35.116923 -2.681694 0.000000 0.000000 0.000000 -3.179570 11.263714 4.643320 6.674840 11.047339 6.442275 3.005906 -59.281873 -15.398288 0.000000 0.000000 0.000000 1.421585 -39.563458 -20.288040 4.956853 53.395598 13.829686 8.716346 -5.312197 2.840679 0.000000 0.000000 0.000000 -5.460617 -13.167173 -0.441731 -2.784140 13.518856 -5.132520 -2.696408 0.966437 -1.528155 0.000000 0.000000 0.000000 
11.647882 -109.375183 1079.098999 -0.203678 10.164666 6.272135 0.025084 0.570185 11.467361 -0.055491 -0.026045 -2.125111 0.330577 0.015404 1.642043 -2.781633 -1.002562 10.699017 0.000000 0.000000 0.000000 -5.976096 1.979704 -1.910740 -2.056261 1.136787 -18.884082 2.509013 -45.286101 -4.389222 0.000000 0.000000 0.000000 -2.832719 13.018310 5.688422 6.981891 11.769965 7.343470 3.800797 -66.236506 -15.569217 0.000000 0.000000 0.000000 1.186425 -39.890343 -20.855681 3.712364 49.436201 11.645977 5.262803 -4.146578 1.643440 0.000000 0.000000 0.000000 -5.406701 -14.299517 -0.411357 -2.879963 17.287746 -5.953570 -3.014294 1.216185 -1.741544 0.000000 0.000000 0.000000 
24.140844 -113.068260 1079.082031 -0.915801 9.303519 6.547135 0.275446 0.473846 11.614621 0.166752 0.151802 -2.075579 0.496859 -0.011800 1.627577 -2.853282 -0.475271 10.338962 0.000000 0.000000 0.000000 -5.644434 3.301159 -2.355650 -3.128171 2.337065 -18.324244 2.921979 -56.501526 -6.236592 0.000000 0.000000 0.000000 -2.362382 15.396686 6.798885 7.197526 12.719619 8.181879 4.760719 -72.996004 -15.348310 0.000000 0.000000 0.000000 1.047542 -38.663033 -21.020848 1.762378 42.694300 9.074405 1.420610 -1.181603 0.524013 0.000000 0.000000 0.000000 -4.983616 -15.292242 -0.411102 -2.941738 22.072959 -6.670116 -3.552051 1.557214 -2.074666 0.000000 0.000000 0.000000 
37.388332 -117.066376 1078.371948 -1.496484 8.156987 6.805063 0.488753 0.635028 11.868360 0.256310 0.158593 -2.115046 0.520482 -0.081318 1.634178 -2.939351 0.076517 10.001518 0.000000 0.000000 0.000000 -5.300561 4.399288 -2.612608 -3.922050 3.134002 -18.304815 3.256636 -67.002165 -7.098919 0.000000 0.000000 0.000000 -1.939834 17.625573 7.641720 7.563096 13.424001 9.106875 5.733270 -78.652345 -15.081327 0.000000 0.000000 0.000000 0.968717 -36.607058 -21.118782 0.130631 35.301861 7.014406 -0.815014 2.744897 0.176359 0.000000 0.000000 0.000000 -4.458515 -15.555260 -0.471508 -2.975906 26.161993 -7.177261 -4.168887 2.204857 -2.533887 0.000000 0.000000 0.000000 
50.599483 -121.719536 1076.948975 -2.015891 7.158922 7.130937 0.608266 0.722516 11.982296 0.324542 0.161169 -2.196184 0.570057 -0.081004 1.672690 -3.041937 0.551658 9.818579 0.000000 0.000000 0.000000 -5.103350 5.003993 -2.566838 -4.585777 3.326060 -19.285923 3.332555 -76.464305 -6.262093 0.000000 0.000000 0.000000 -1.798290 19.199454 8.013701 8.144801 13.740663 9.960425 6.578232 -82.759970 -14.977988 0.000000 0.000000 0.000000 1.796813 -34.746366 -21.668658 0.302352 29.234232 6.166331 -0.082490 5.948144 0.956527 0.000000 0.000000 0.000000 -4.007294 -14.977942 -0.590543 -2.862852 28.475343 -7.546587 -4.433979 2.848386 -2.838478 0.000000 0.000000 0.000000 
64.361130 -126.805649 1074.770996 -2.629199 6.235002 7.508443 0.645394 0.589961 11.975576 0.396713 0.246597 -2.244846 0.663419 -0.057025 1.711882 -3.137388 1.002906 9.669120 0.000000 0.000000 0.000000 -4.977020 5.173686 -2.245883 -5.188327 2.965028 -21.163707 3.143914 -85.582890 -4.126607 0.000000 0.000000 0.000000 -1.899744 20.435300 8.102608 8.812137 13.947494 10.566730 7.332039 -85.865932 -14.971282 0.000000 0.000000 0.000000 3.706407 -32.635311 -22.597390 2.176166 23.520401 5.859817 2.613103 8.567090 2.489672 0.000000 0.000000 0.000000 -3.561409 -13.791889 -0.787695 -2.608297 29.703499 -7.832247 -4.353462 3.336129 -2.947863 0.000000 0.000000 0.000000 
77.672684 -132.477707 1072.249023 -2.902102 5.339914 7.924294 0.540286 0.587520 11.804478 0.301853 0.218684 -2.245864 0.587119 -0.065737 1.735538 -3.226330 1.436557 9.589186 0.000000 0.000000 0.000000 -4.883915 4.694395 -1.907347 -5.572346 1.986354 -23.107198 -177.141629 -87.010835 178.876166 0.000000 0.000000 0.000000 -2.077485 21.089072 7.996706 9.702607 13.917462 11.325103 8.107191 -88.261123 -15.632219 0.000000 0.000000 0.000000 5.454685 -30.559179 -23.359921 4.255672 18.701745 5.159596 5.026767 11.050538 3.896147 0.000000 0.000000 0.000000 -3.245778 -12.400336 -1.060158 -2.406369 30.417877 -7.913848 -4.161089 3.658758 -2.962460 0.000000 0.000000 0.000000 
89.714996 -138.906342 1069.630981 -2.688656 4.678203 8.278612 0.208375 0.587491 11.504140 -0.029200 0.105227 -2.230435 0.267478 -0.125361 1.739585 -3.324186 1.903018 9.624564 0.000000 0.000000 0.000000 -4.811171 3.463971 -1.654655 -5.682889 0.481507 -24.587734 -177.373909 -81.899517 -177.320310 0.000000 0.000000 0.000000 -2.191070 20.807408 7.660390 10.982105 13.466619 12.655220 9.030145 -89.990325 -17.586433 0.000000 0.000000 0.000000 6.074712 -29.448300 -23.481618 5.283255 15.855004 3.917403 5.998396 13.737946 4.731793 0.000000 0.000000 0.000000 -3.057956 -11.176890 -1.345051 -2.301977 30.796553 -7.646197 -3.892371 3.679799 -2.851773 0.000000 0.000000 0.000000 
100.886642 -146.029022 1066.758057 -2.331990 4.404667 8.506146 -0.320777 0.234001 11.178581 -0.466589 0.098385 -2.219264 -0.129605 -0.196994 1.718197 -3.415551 2.412740 9.713512 0.000000 0.000000 0.000000 -4.797960 1.474400 -1.244577 -5.653785 -1.490844 -26.003791 -177.749977 -78.110693 -172.365060 0.000000 0.000000 0.000000 -2.238607 19.622396 7.002047 12.558490 12.629707 14.493667 -169.910508 -89.001625 159.266464 0.000000 0.000000 0.000000 6.170031 -29.433204 -23.111642 5.819483 14.822030 2.541749 6.459399 16.056788 5.314494 0.000000 0.000000 0.000000 -2.865684 -10.090302 -1.554483 -2.166999 30.653411 -7.128726 -3.418503 3.315727 -2.532849 0.000000 0.000000 0.000000 
111.755249 -153.571075 1063.755981 -2.022074 4.230588 8.651317 -0.813038 -0.063554 10.847979 -0.857777 0.112483 -2.200655 -0.475048 -0.242893 1.686855 -3.468218 2.794765 9.821200 0.000000 0.000000 0.000000 -4.761482 -0.832585 -0.829454 -5.739645 -3.482878 -27.044411 -178.416935 -75.341671 -166.871698 0.000000 0.000000 0.000000 -2.266898 18.166288 6.265423 14.139748 11.637364 16.426971 -168.841759 -88.249302 155.912505 0.000000 0.000000 0.000000 6.118044 -29.673822 -22.627401 6.004941 14.678854 1.584387 6.597166 17.671731 5.655847 0.000000 0.000000 0.000000 -2.740182 -9.282506 -1.523869 -2.091229 30.756818 -6.766656 -3.100541 3.059421 -2.316522 0.000000 0.000000 0.000000 
122.661179 -161.417313 1060.624023 -1.852997 3.909734 8.728518 -1.088208 0.064169 10.507409 -1.099435 0.077838 -2.166122 -0.692487 -0.237104 1.659227 -3.470387 2.877660 9.983047 0.000000 0.000000 0.000000 -4.588662 -2.898550 -0.663825 -6.132397 -5.025359 -27.478414 -179.392762 -73.408534 -161.468760 0.000000 0.000000 0.000000 -2.451567 16.897652 5.668127 15.577776 10.729383 18.105839 -167.828863 -87.265262 152.999468 0.000000 0.000000 0.000000 6.129219 -29.597651 -22.297185 5.851716 14.984264 1.519078 6.423916 18.368446 5.704206 0.000000 0.000000 0.000000 -2.767986 -8.844596 -1.161841 -2.157914 31.714827 -6.777470 -3.184450 3.242730 -2.412954 0.000000 0.000000 0.000000 
133.397751 -169.670731 1057.308960 -1.781343 3.571802 8.701063 -1.246550 0.435855 10.193569 -1.238889 0.039231 -2.137273 -0.811996 -0.190121 1.626254 -3.437186 2.730602 10.197744 0.000000 0.000000 0.000000 -4.279995 -4.779316 -0.629268 -6.793715 -6.212199 -27.598425 179.347457 -72.005056 -155.804210 0.000000 0.000000 0.000000 -2.756643 15.564234 5.115856 17.013074 9.801485 19.711985 -166.808251 -86.194850 150.058373 0.000000 0.000000 0.000000 6.048937 -29.563414 -21.938976 5.278843 16.071438 2.146434 5.859797 18.260337 5.444132 0.000000 0.000000 0.000000 -2.918306 -8.724321 -0.514255 -2.322588 33.211034 -7.013606 -3.551817 3.710264 -2.722080 0.000000 0.000000 0.000000 
144.050110 -178.040207 1054.223999 -1.813960 3.388336 8.692390 -1.361262 0.743451 9.847176 -1.313496 -0.003308 -2.080762 -0.868826 -0.128274 1.583386 -3.394963 2.565254 10.363695 0.000000 0.000000 0.000000 -4.000228 -6.689498 -0.521278 -7.457768 -7.330514 -27.452893 178.199352 -71.209679 -150.166252 0.000000 0.000000 0.000000 -2.927070 14.273592 4.707949 18.235110 8.884005 21.017589 -165.955977 -85.479180 147.593669 0.000000 0.000000 0.000000 5.901192 -29.556660 -21.524477 4.475601 17.327813 2.801373 5.027880 17.254928 4.909196 0.000000 0.000000 0.000000 -3.165857 -8.922046 0.362340 -2.531109 34.875353 -7.632765 -4.144349 4.564035 -3.256934 0.000000 0.000000 0.000000 
154.975800 -186.588165 1051.567017 -1.995891 3.543531 8.769496 -1.451274 0.662570 9.434511 -1.333233 -0.033513 -1.968642 -0.871562 -0.071451 1.515321 -3.358633 2.555454 10.372073 0.000000 0.000000 0.000000 -3.921642 -8.786031 -0.129923 -7.890939 -8.542661 -27.030181 177.477682 -71.463585 -144.600700 0.000000 0.000000 0.000000 -2.770635 13.258586 4.564715 18.946676 8.094399 21.778435 -165.506839 -85.563477 146.342389 0.000000 0.000000 0.000000 5.702912 -29.510697 -20.982234 3.504695 18.243012 3.060747 3.949355 14.888216 4.040142 0.000000 0.000000 0.000000 -3.542955 -9.479559 1.558285 -2.793844 36.407211 -8.894937 -5.051912 6.077664 -4.152875 0.000000 0.000000 0.000000 
